<?xml version="1.0" encoding="UTF-8"?>
<svg version="1.1" viewBox="0 0 1128 1600" width="1280" height="1280" xmlns="http://www.w3.org/2000/svg">
<path transform="translate(479 349)" d="m0 0c1.89 0.00997 3.79 0.0189 5.68 0.0269 3.9 0.0178 7.8 0.0409 11.7 0.0685 5.38 0.0368 10.8 0.0539 16.1 0.0627 1.69 0.00291 3.38 0.00583 5.08 0.00875 1.25 0.00215 1.25 0.00215 2.53 0.00435 17.5 0.0349 35 0.117 52.5 0.197 9.98 0.0453 20 0.0847 29.9 0.111 8.84 0.023 17.7 0.0564 26.5 0.102 4.64 0.0237 9.28 0.0426 13.9 0.0489 4.34 0.00608 8.67 0.0262 13 0.0567 1.58 0.00872 3.16 0.0125 4.73 0.0107 21.9-0.017 37.7 6.16 53.6 21.6 15.7 16.7 19 36.4 18.9 58.4-0.0026 1.6-0.00472 3.19-0.00642 4.79-0.00461 3.46-0.0124 6.93-0.0225 10.4-0.0164 5.64-0.0258 11.3-0.034 16.9-0.00916 6.07-0.0188 12.1-0.0306 18.2-0.029 15-0.0406 30.1-0.0414 45.1-1.41e-4 1.63-1.41e-4 1.63-2.84e-4 3.3-7.22e-4 8.96-7.25e-4 17.9-5e-4 26.9 1.61e-4 8.07-3.51e-4 16.1-0.00179 24.2-1.98e-4 1.15-3.96e-4 2.3-6e-4 3.49-0.0042 18.7-0.0408 37.3-0.0884 56-0.048 19.2-0.0581 38.3-0.0337 57.5 0.0138 11.8-0.00254 23.6-0.0575 35.4-0.0349 8.09-0.0332 16.2-0.00262 24.3 0.0165 4.67 0.0168 9.34-0.0266 14-0.0394 4.28-0.0326 8.55 0.0107 12.8 0.00752 1.55-0.00178 3.09-0.0298 4.63-0.226 8.67-0.226 8.67 3.48 16.3 2.61 2.42 2.61 2.42 5.36 4.37 2.36 1.75 3.81 3.38 5.44 5.81 3.07-1.15 5.97-2.48 8.88-4 10-4.98 20.7-5.65 31.5-2.38 8.95 3.4 14.7 9.04 20.6 16.4 4.85-1.4 9.1-3.52 13.5-5.88 8.25-3.75 18.6-3.06 27-0.152 12 5.06 19.5 12.6 24.5 24.6 1.79 4.87 2.11 9.37 2.23 14.5 0.0209 0.804 0.0417 1.61 0.0632 2.44 0.0665 2.65 0.125 5.3 0.183 7.94 0.0208 0.911 0.0417 1.82 0.0632 2.76 0.663 29.3 0.564 58.5-0.626 87.8-2.58 0.027-5.17 0.0469-7.75 0.0625-0.73 0.00838-1.46 0.0168-2.21 0.0254-6.75 0.0307-6.75 0.0307-10-1.09-1.71-3.42-1.11-7.32-1.08-11.1 0.00307-0.942 0.00613-1.88 0.00929-2.85 0.00717-2.05 0.0166-4.1 0.0279-6.15 0.0174-3.25 0.0277-6.5 0.0359-9.75 0.0245-9.24 0.0599-18.5 0.105-27.7 0.0269-5.65 0.0439-11.3 0.0549-16.9 0.00619-2.15 0.0162-4.3 0.0301-6.45 0.0193-3.02 0.0261-6.04 0.0303-9.05 0.00876-0.881 0.0175-1.76 0.0266-2.67-0.0127-8.14-0.741-16-6.24-22.3-5.1-4.55-9.67-5.68-16.4-5.37-3.29 0.478-5.74 1.61-8.55 3.37-0.99 0.33-1.98 0.66-3 1-1.12 1.65-1.12 1.65-2 4-0.516 1.13-1.03 2.26-1.56 3.43-2 5.34-1.66 10.5-1.44 16.1 0.554 14.4 0.554 14.4-4.69 20.4-3.44 1.58-6.59 1.76-10.3 1.06-2.97-2.21-3.83-3.49-5-7-0.117-2.38-0.179-4.77-0.211-7.16-0.0281-1.45-0.0568-2.9-0.0859-4.35-0.041-2.27-0.0779-4.54-0.104-6.81 0.0446-14.9 0.0446-14.9-5.91-28.1-4.72-4.5-8.23-5.75-14.7-5.94-6.48 0.192-10 1.43-14.7 6-6.12 8.08-5.64 17.2-5.38 26.9 0.468 19.7 0.468 19.7-4.12 24.9-3.62 1.93-5.76 2.08-9.81 1.5-3.2-1.85-4.64-3.19-6.13-6.58-1.09-4.3-1.04-8.18-0.921-12.6 0.0253-1.8 0.05-3.6 0.0742-5.4 0.0494-2.81 0.105-5.61 0.172-8.42 0.526-16.9 0.526-16.9-6.38-32-5.82-4.14-11.7-5.73-18.7-4.57-4.96 1.37-8.93 4.68-12 8.73-4.89 8.81-3.22 21.3-3.09 31.1 0.0278 2.42 0.0525 4.84 0.0712 7.27 0.0121 1.49 0.0295 2.99 0.0533 4.48 0.108 11.3 0.108 11.3-3.12 15.9-3.32 2.33-5.04 2.74-9 2.5-3.04-0.682-4.8-2.24-6.93-4.43-3.87-7.74-2.12-18.9-2.07-27.4 0.0052-1.53 0.00991-3.06 0.0142-4.6 0.00989-3.28 0.0227-6.56 0.0377-9.84 0.0232-5.2 0.0364-10.4 0.0477-15.6 0.0333-14.8 0.075-29.5 0.138-44.3 0.0346-8.17 0.0584-16.3 0.0702-24.5 0.00807-5.16 0.0292-10.3 0.0602-15.5 0.0161-3.22 0.0194-6.43 0.0192-9.65 0.00241-1.48 0.00992-2.97 0.0231-4.45 0.191-13.9 0.191-13.9-5.66-26.1-5.61-4.3-9.9-5.68-16.9-5.48-5.54 0.841-9.02 3.91-13.1 7.48-5.37 9.71-3.88 22.8-3.8 33.6 0.00549 1.86 0.01 3.72 0.0137 5.59 0.00966 3.99 0.0254 7.97 0.046 12 0.032 6.31 0.0473 12.6 0.0601 18.9 0.034 15.7 0.0868 31.3 0.149 47 0.0485 12.2 0.0905 24.4 0.112 36.6 0.0115 6.27 0.0369 12.5 0.0727 18.8 0.0192 3.9 0.0259 7.8 0.0291 11.7 0.00401 1.8 0.0132 3.61 0.028 5.41 0.0195 2.47 0.0203 4.93 0.0166 7.4 0.0152 1.07 0.0152 1.07 0.0306 2.15-0.0403 5.68-1.25 10.5-5.13 14.8-3.4 1.61-5.52 1.63-9.25 1.06-7.7-3.81-11.1-12.8-15-20-1.27-2.34-2.55-4.68-3.83-7.02-0.838-1.53-1.67-3.05-2.49-4.59-6.44-11.8-6.44-11.8-17.7-18.4-6.31-1.2-11.3 0.385-16.8 3.46-4.66 3.31-6.16 7.36-7.11 12.9-0.552 9.8 4.45 17.9 9.38 26 1.26 2.11 2.51 4.22 3.77 6.33 0.632 1.06 1.26 2.11 1.92 3.2 2.89 4.87 5.7 9.79 8.5 14.7 0.484 0.849 0.968 1.7 1.47 2.57 0.896 1.57 1.79 3.15 2.68 4.72 0.798 1.39 1.61 2.77 2.45 4.14 2.05 3.39 2.78 4.92 2.78 9-2.43 1.34-4.87 2.67-7.31 4-1.04 0.572-1.04 0.572-2.09 1.16-5.26 2.84-5.26 2.84-8.6 2.84-0.389-0.741-0.779-1.48-1.18-2.25-4.18-7.86-8.6-15.5-13.1-23.2-4.22-7.13-8.37-14.3-12.5-21.5-1.03-1.78-2.09-3.55-3.15-5.32-6.42-11-6.81-21.4-5.04-33.7h-57c4.71 9.55 4.71 9.55 10.1 18.5 10 16 12.1 31.5 12 50.1-0.00451 1.2-0.00902 2.4-0.0137 3.63-0.0117 2.93-0.0296 5.87-0.0488 8.8h-21c-0.0374-1.95-0.0748-3.91-0.113-5.92-0.0488-1.94-0.0976-3.87-0.149-5.81-0.0488-1.97-0.0838-3.94-0.118-5.91-0.595-21.3-9.89-36.6-21-54.1-8.53-13.6-8.53-13.6-8.66-20.5 1.56-5.47 4.22-10.1 7-15.1 0.593-1.07 1.19-2.15 1.8-3.25 4.44-8.01 9.03-15.9 13.7-23.8 3.05-5.11 6.08-10.2 9.1-15.4 1.09-1.85 2.19-3.7 3.29-5.55 3.54-5.98 6.95-12 10.1-18.2 0.566-1.1 1.13-2.2 1.72-3.34 2.35-5.62 2.6-10.7 0.453-16.4-2.77-5.09-6.66-8.76-12.1-10.7-5.46-0.81-10.9-1.23-15.6 2-0.784 0.66-1.57 1.32-2.38 2h-2c-0.268 0.552-0.537 1.1-0.813 1.67-1.31 2.57-2.73 5.06-4.17 7.56-0.598 1.04-1.2 2.07-1.81 3.14-0.645 1.11-1.29 2.23-1.95 3.38-0.678 1.17-1.36 2.35-2.03 3.52-4.92 8.52-9.88 17-14.9 25.5-3.26 5.57-6.47 11.2-9.66 16.8-0.362 0.637-0.723 1.27-1.1 1.93-1.77 3.11-3.53 6.23-5.28 9.35-0.637 1.12-1.27 2.25-1.93 3.4-0.56 0.994-1.12 1.99-1.7 3.01-5.23 8.48-5.23 8.48-9.7 9.76-4-0.0727-6.32-0.53-9.62-2.81-7.92-10.6-9.58-23.6-10.5-36.4-0.0844-1.18-0.169-2.35-0.256-3.56-0.89-13.5-0.883-27-0.827-40.5 0.00488-2.7 0.00668-5.39 0.00858-8.09 0.00612-6.29 0.0224-12.6 0.0427-18.9 0.0226-7.18 0.0334-14.4 0.0434-21.5 0.0207-14.7 0.0557-29.5 0.101-44.2-6.15 12.2-6.15 12.2-12.1 24.5-0.334 0.706-0.667 1.41-1.01 2.14-1.06 2.24-2.11 4.47-3.16 6.71-0.549 1.17-0.549 1.17-1.11 2.36-1.86 3.95-3.72 7.91-5.57 11.9-1.28 2.74-2.57 5.47-3.87 8.2-5.49 11.5-10.7 23.1-15.3 35.1-0.358 0.945-0.717 1.89-1.09 2.86-4 10.9-6.99 22-6.97 33.6 7.05e-5 1.24 1.41e-4 2.47 2.14e-4 3.75 0.00513 1.35 0.0104 2.71 0.0157 4.06 0.00192 1.44 0.00338 2.88 0.00443 4.32 0.00315 3.09 0.00941 6.19 0.0181 9.28 0.0136 4.91 0.0194 9.82 0.0241 14.7 0.012 11.3 0.034 22.6 0.0562 34 0.0203 10.3 0.0383 20.7 0.0482 31 0.00413 4.07 0.0104 8.14 0.0217 12.2 0.0901 32.5 0.0901 32.5-1.08 47.3-0.919 0.00629-0.919 0.00629-1.86 0.0127-1.21 0.00833-1.21 0.00833-2.44 0.0168-0.797 0.00548-1.59 0.011-2.41 0.0166-1.68 0.0124-3.37 0.0275-5.05 0.044-0.728 0.0025-1.46 5e-3 -2.21 0.00757-0.749 0.00524-1.5 0.0105-2.27 0.0159-1.77-0.114-1.77-0.114-2.77-1.11-0.108-1.45-0.147-2.91-0.158-4.36-0.00979-0.944-0.0196-1.89-0.0297-2.86-0.00576-1.04-0.0115-2.09-0.0174-3.17-0.0099-1.09-0.0198-2.19-0.03-3.32-0.0318-3.66-0.0565-7.31-0.0811-11-0.0206-2.56-0.0416-5.12-0.063-7.68-0.0441-5.4-0.0851-10.8-0.123-16.2-0.0387-5.48-0.0802-11-0.125-16.4-0.00544-0.665-0.0109-1.33-0.0165-2.02-0.011-1.34-0.0219-2.68-0.0329-4.01-0.355-43.6-0.355-43.6-0.393-65.3-0.00266-1.4-0.00646-2.81-0.0116-4.21-0.136-40.5 12.1-70.4 29.2-107 2.88-6.08 5.73-12.2 8.59-18.3 0.949-2.02 1.9-4.04 2.85-6.07 2.93-6.23 5.83-12.5 8.67-18.7 0.499-1.1 0.999-2.2 1.51-3.33 0.917-2.03 1.83-4.06 2.74-6.09 3-6.63 5.97-12.5 11.6-17.2 0.683-0.584 1.37-1.17 2.07-1.77 1.8-1.42 1.8-1.42 3.8-2.42 0.00239-1.14 0.00478-2.28 0.00724-3.46 0.0589-27.8 0.135-55.6 0.228-83.4 0.00897-2.68 0.0179-5.36 0.0267-8.04 0.0022-0.666 0.00441-1.33 0.00668-2.02 0.0353-10.8 0.0602-21.5 0.0812-32.3 0.0218-11.1 0.0552-22.1 0.0984-33.2 0.0239-6.2 0.0426-12.4 0.0489-18.6 0.00608-5.85 0.0262-11.7 0.0567-17.5 0.00874-2.14 0.0125-4.27 0.0107-6.41-0.0137-24 3.67-43.7 20.6-61.9 19.5-18.5 43.1-20.6 68.7-20.4zm-59.9 40.1c-11.2 14.3-10.3 34.4-10.2 51.8-8.75e-4 1.6-0.00263 3.21-0.00518 4.81-0.00442 4.35 0.00345 8.7 0.0136 13 0.00871 4.71 0.00571 9.42 0.0042 14.1-0.00104 8.14 0.00518 16.3 0.0165 24.4 0.0163 11.8 0.0215 23.5 0.024 35.3 0.00437 19.1 0.0176 38.2 0.0366 57.3 0.0184 18.6 0.0325 37.1 0.041 55.7 5.25e-4 1.15 0.00105 2.29 0.00159 3.47 0.00261 5.75 0.00514 11.5 0.00762 17.2 0.0207 47.6 0.0559 95.2 0.101 143h3c1.59-2.07 2.92-4.08 4.25-6.31 0.425-0.695 0.851-1.39 1.29-2.11 4.5-7.45 8.67-15.1 12.9-22.7 21.3-38.7 21.3-38.7 38.5-44.5 11.2-1.91 23-0.858 32.7 5.25 9 6.68 15.3 15.2 17.4 26.4 1.11 13.6-2.81 23.5-9.38 35.2-0.517 0.936-1.03 1.87-1.57 2.84-5.63 10.1-11.5 20.1-17.4 30.1-2.71 4.62-5.39 9.26-8.08 13.9-0.471 0.814-0.941 1.63-1.43 2.47-1.07 1.84-2.13 3.69-3.2 5.53 3.55 2.37 5.12 2.27 9.33 2.32 1.31 0.0192 2.62 0.0384 3.97 0.0582 1.43 0.0097 2.87 0.0183 4.3 0.0258 1.47 0.0115 2.95 0.023 4.42 0.0345 3.09 0.021 6.19 0.0327 9.28 0.0397 3.94 0.0109 7.88 0.0589 11.8 0.116 3.05 0.0375 6.1 0.0477 9.14 0.0507 1.45 0.00601 2.9 0.0219 4.35 0.0484 8.17 0.138 14.4-0.297 21.3-5.22 8.44-5.92 20.2-5.66 30-3.97 4.2 1.13 7.56 2.69 11.2 5.12 4.08 2.76 8.03 3.52 12.9 3.38 0.66-0.33 1.32-0.66 2-1-0.00277-0.708-0.00553-1.42-0.00838-2.14-0.0665-17.3-0.116-34.6-0.147-51.8-0.0154-8.36-0.0364-16.7-0.0709-25.1-0.0301-7.29-0.0493-14.6-0.0559-21.9-0.00389-3.85-0.0129-7.71-0.0349-11.6-0.0206-3.64-0.0266-7.28-0.0221-10.9-0.0012-1.95-0.0172-3.89-0.0339-5.84 0.0483-14 1.93-29.1 11.4-40.1 9.54-9.15 20.7-12.2 33.6-12 9.84 0.505 17.9 5.22 24.4 12.3 13.1 15.1 11.1 34.9 11.3 53.7 0.0206 1.75 0.0416 3.5 0.063 5.25 0.0546 4.55 0.104 9.1 0.153 13.7 0.0507 4.67 0.106 9.33 0.161 14 0.107 9.12 0.208 18.2 0.307 27.3 0.857-0.266 1.71-0.531 2.6-0.805 1.14-0.353 2.29-0.706 3.46-1.07 1.13-0.348 2.25-0.696 3.41-1.05 3.5-1.06 7.01-2.07 10.5-3.07 0.878-14.5 1.14-29 1.13-43.6 0.00136-2.3 0.00314-4.59 0.00531-6.89 0.00453-6.21 0.0028-12.4-3.79e-4 -18.6-0.00231-5.96-5.25e-4 -11.9 9.27e-4 -17.9 0.00285-12.6-4.1e-4 -25.3-0.0058-37.9-0.00437-10.6-0.0037-21.1 9.19e-4 -31.7 0.0152-36.1-0.0129-72.3-0.114-108-0.0112-4.04-0.0216-8.08-0.0313-12.1-0.0391-16.3-0.102-32.6-0.202-48.9-0.0288-4.78-0.0488-9.56-0.0608-14.3-0.0143-5.54-0.0475-11.1-0.0953-16.6-0.0143-2-0.0221-4.01-0.0225-6.01-0.0117-17.9-1.56-34.6-14.4-48.3-11.3-10.6-25.5-14.9-40.8-14.9-0.851-0.00297-1.7-0.00594-2.58-9e-3 -2.85-0.00865-5.69-0.0102-8.54-0.0117-2.04-0.00463-4.09-0.00966-6.13-0.015-5.55-0.0131-11.1-0.0196-16.7-0.024-3.47-0.00293-6.95-0.00704-10.4-0.0115-10.9-0.0137-21.8-0.0233-32.6-0.0272-12.5-0.00447-25.1-0.022-37.6-0.051-9.7-0.0217-19.4-0.0317-29.1-0.033-5.79-0.00104-11.6-0.00687-17.4-0.0248-5.45-0.0166-10.9-0.0186-16.4-0.00986-1.99 7.65e-4 -3.98-0.0035-5.97-0.0135-22.8-0.107-40.4 2.36-56.1 20.4z" fill="#000002"/>
<path transform="translate(669 1029)" d="m0 0c0.476 0.289 0.951 0.578 1.44 0.875v2c1.08 0.309 1.08 0.309 2.19 0.625 3.74 1.83 5.3 4.08 7.81 7.38 3.42-1.07 5.91-2.62 8.69-4.81 8.29-6.4 16-9.32 26.4-9.38 1.22-0.0142 2.44-0.0284 3.7-0.043 3.18 0.23 3.18 0.23 6.18 2.23 1.62 0.939 3.25 1.88 4.88 2.81 9.35 5.64 15.4 13.5 18.5 24 1.33 6.62 0.999 13.4 0.931 20.1-0.00561 1.62-0.00987 3.24-0.0129 4.87-0.0114 4.24-0.0408 8.48-0.0741 12.7-0.0363 5.1-0.0499 10.2-0.0674 15.3-0.0289 7.72-0.0865 15.4-0.139 23.2-11.2 0.33-22.4 0.66-34 1-0.049-4.3-0.098-8.6-0.148-13-0.0446-3.45-0.0911-6.9-0.139-10.3-0.0497-3.63-0.0962-7.26-0.135-10.9-0.0371-3.5-0.0836-7-0.136-10.5-0.0273-1.97-0.0452-3.94-0.0629-5.92-0.153-9.43-0.466-17.6-6.38-25.3-6.34 0.287-10.9 1.04-16 5-3.7 7.23-3.47 14.3-3.51 22.3-0.0169 1.38-0.035 2.76-0.0544 4.14-0.0472 3.6-0.0772 7.21-0.103 10.8-0.0299 3.69-0.0763 7.37-0.121 11.1-0.0873 7.22-0.147 14.4-0.209 21.6-11.2 0.33-22.4 0.66-34 1-0.0561-6.92-0.0561-6.92-0.113-14-0.0303-2.93-0.0615-5.86-0.0957-8.79-0.0542-4.65-0.105-9.29-0.137-13.9-0.0261-3.75-0.0666-7.5-0.117-11.2-0.0166-1.43-0.0282-2.85-0.0344-4.28 0.0407-10.3 0.0407-10.3-3.5-19.8-0.588-1.21-0.588-1.21-1.19-2.44-0.268-0.516-0.536-1.03-0.812-1.56-5.1 0.111-8.97 0.401-13.4 3-6.4 7.49-6.03 16.6-6.07 26-0.018 1.32-0.0359 2.64-0.0544 4-0.0472 3.48-0.0772 6.95-0.103 10.4-0.03 3.56-0.0763 7.12-0.121 10.7-0.0872 6.96-0.147 13.9-0.209 20.9-11.9 0.33-23.8 0.66-36 1v-102c5.02-1 9.53-1.22 14.6-1.25 0.859-0.0206 1.72-0.0412 2.6-0.0625 1.24-0.00773 1.24-0.00773 2.5-0.0156 0.748-0.00935 1.5-0.0187 2.27-0.0283 2.57 0.457 3.38 1.35 5.01 3.36 0.516 0.866 1.03 1.73 1.56 2.62 1.22 2.49 1.22 2.49 3.44 3.38 0.499-0.447 0.998-0.895 1.51-1.36 12-10.1 28.4-15.3 43-7.52zm-46.6 9.88 1 2z" fill="#003093"/>
<path transform="translate(820 1026)" d="m0 0c0.79-0.00943 1.58-0.0189 2.39-0.0286 3.96 0.0225 6.86 0.0986 10.3 2.28 0.887 0.247 1.77 0.495 2.69 0.75 3.92 1.48 6.96 3.59 10.4 6.01 1.85 1.42 1.85 1.42 3.95 1.24 0.588-1.45 0.588-1.45 1.19-2.94 1.81-3.06 1.81-3.06 3.82-3.75 4.21-0.446 8.38-0.461 12.6-0.441 1.29-0.0058 1.29-0.0058 2.6-0.0117 1.24 0.00193 1.24 0.00193 2.5 0.00391 0.748 0.00113 1.5 0.00226 2.27 0.00342 2.01 0.129 2.01 0.129 5.01 1.13v101h-29c-0.33-1.65-0.66-3.3-1-5-2.64 1.65-5.28 3.3-8 5 0.66 0.33 1.32 0.66 2 1 0.219 5.7-0.384 10.9-1.46 16.5-1.56 10.2-1.75 20.5-1.78 30.9-0.0098 2.33-0.041 4.66-0.0723 6.99-0.0546 7.7 0.0702 14.5 3.31 21.6 1.96 2.41 1.96 2.41 5.62 2.12 1.11-0.0412 2.23-0.0825 3.38-0.125v3c-3.29 1.64-6.47 1.77-10 1-5.25-3.52-6.9-8.98-8.4-14.8-1.08-5.69-1.04-11.3-0.975-17.1 0.00653-1.29 0.0131-2.58 0.0198-3.91 0.154-14.5 0.535-30.2 4.36-44.2-0.752 0.0355-1.5 0.0711-2.28 0.108-3.39 0.157-6.77 0.306-10.2 0.455-1.18 0.0561-2.37 0.112-3.59 0.17-1.12 0.0483-2.25 0.0967-3.41 0.146-1.04 0.0471-2.08 0.0943-3.16 0.143-2.41-0.0217-2.41-0.0217-3.41-1.02-1.6-0.303-3.2-0.566-4.81-0.812-15.7-2.74-15.7-2.74-20.2-7.19-0.66-0.33-1.32-0.66-2-1v-2c-0.742-0.229-1.49-0.459-2.25-0.695-7.67-3.64-11.9-13.8-14.8-21.3-4.97-15.3-4.1-31.6 2.66-46.2 7.46-13.8 18.9-22.2 33.4-27.5 5.32-1.49 10.8-1.45 16.2-1.5zm-15.9 41.1c-3.72 5.66-5.34 11.3-4.41 18.1 1.35 6.16 3.48 10.6 8 15 7.08 4.21 15.5 4.8 23.5 3.63 6-1.88 9.57-6.19 12.5-11.5 2.6-5.98 3.09-12.3 1.24-18.6-1.97-4.81-4.33-8.08-8.27-11.5-1.02-1.39-1.02-1.39-2.06-2.81-9.65-7.18-23.9-0.764-30.5 7.67z" fill="#003194"/>
<path transform="translate(510 1026)" d="m0 0c0.764-0.0206 1.53-0.0412 2.32-0.0625 8.75-0.0594 16.2 3.31 23.5 8.06 0.763 0.412 1.53 0.825 2.31 1.25 0.99-0.33 1.98-0.66 3-1 0.464-0.99 0.464-0.99 0.938-2 1.06-2 1.06-2 2.82-2.62 2.43-0.415 4.69-0.513 7.15-0.516 0.926-0.00129 1.85-0.00258 2.8-0.00391 1.44 0.0058 1.44 0.0058 2.91 0.0117 1.45-0.0058 1.45-0.0058 2.93-0.0117 0.923 0.00129 1.85 0.00258 2.8 0.00391 1.27 0.00169 1.27 0.00169 2.56 0.00342 2.09 0.129 2.09 0.129 4.09 1.13v101c-9.24 0.33-18.5 0.66-28 1-0.99-1.98-1.98-3.96-3-6-0.949 0.763-1.9 1.53-2.88 2.31-10.8 7.69-26.1 7.96-38.8 5.94-6.54-1.32-14.6-3.43-19.4-8.25-1.14-0.402-1.14-0.402-2.31-0.812-9-3.98-14.1-14.4-17.6-23.1-5.38-15.6-4.96-33 2.28-47.9 3.13-5.54 6.95-10.9 11.6-15.2h2v-2c2.19-1.11 4.37-2.21 6.56-3.31 0.609-0.309 1.22-0.617 1.85-0.936 9.31-4.68 17.1-6.93 27.5-7zm-13.8 39.3c-5.66 7.24-5.8 13.9-5.09 22.9 1.49 5.75 3.83 9.85 9 13 6.99 3.22 16.6 4.27 24 2 5.94-4.12 10.5-8.77 12-16 1.05-10.3-1.27-17.4-7.56-25.5-4.1-4.21-7.21-4.84-13.1-5-8.23 0.137-13.7 2.51-19.3 8.57z" fill="#003194"/>
<path transform="translate(255 1026)" d="m0 0c0.833 6.45e-4 1.67 0.00129 2.52 0.00195 4.07 0.0292 7.88 0.172 11.9 1.19v2c1.49 0.0928 1.49 0.0928 3 0.188 4.1 0.55 6.87 2.4 10.2 4.75 1.88 1.31 1.88 1.31 4.8 1.06 0.227-0.804 0.454-1.61 0.688-2.44 1.31-2.56 1.31-2.56 3.26-3.21 4.42-0.508 8.8-0.536 13.2-0.539 0.915-0.0122 1.83-0.0245 2.77-0.0371 1.31-0.0029 1.31-0.0029 2.65-0.00586 1.19-0.00616 1.19-0.00616 2.41-0.0125 1.98 0.243 1.98 0.243 3.98 2.24 0.246 1.81 0.246 1.81 0.241 4.04 0.00275 0.844 0.0055 1.69 0.00833 2.56-0.0108 1.39-0.0108 1.39-0.0218 2.81 2.92e-4 0.976 5.84e-4 1.95 8.85e-4 2.96-0.0014 3.24-0.017 6.47-0.0326 9.71-0.00373 2.24-0.00658 4.48-0.00858 6.72-0.00765 5.9-0.0273 11.8-0.0494 17.7-0.0204 6.02-0.0296 12-0.0397 18.1-0.0215 11.8-0.0556 23.6-0.0977 35.4-4.25 0.116-8.5 0.187-12.8 0.25-1.21 0.0335-2.41 0.067-3.66 0.102-1.74 0.0193-1.74 0.0193-3.52 0.0391-1.6 0.0314-1.6 0.0314-3.24 0.0635-3.49-0.558-4.64-1.77-6.84-4.45-0.558 0.299-1.12 0.598-1.69 0.906-2.39 1.13-4.7 1.87-7.25 2.59-2.68 0.778-5.23 1.57-7.81 2.62-10.7 4.15-25.7 2.5-36-1.94-4.51-2.22-8.9-4.68-13.2-7.19v-2c-0.589-0.258-1.18-0.516-1.79-0.781-8.76-4.82-13.3-15.6-16-24.7-4-17.8-0.702-34.1 8.81-49.5 1.57-2.25 3.05-4.05 5-6h2c0.235-0.597 0.469-1.19 0.711-1.81 3.59-6.11 12.7-9.17 19.3-11.2 1.04-0.352 2.07-0.704 3.14-1.07 4.6-1.11 8.78-1.19 13.5-1.12zm-10.6 37.2c-0.597 0.48-1.19 0.959-1.81 1.45-4.85 4.23-5.81 8.56-6.41 14.8-0.24 5.58 0.99 9.67 3.21 14.8h2c0.0838 0.603 0.168 1.21 0.254 1.83 0.986 2.87 2.04 3.46 4.68 4.92 5.07 2.36 9.74 2.79 15.2 2.88 1.14 0.0343 1.14 0.0343 2.3 0.0693 5.77-0.078 9.32-1.74 13.5-5.69 4.55-5.5 6.38-11.9 6-19-1.66-9.12-5.6-15.5-13-21-9.68-3.23-18.5-1.71-26 5zm11 41v1h9v-1h-9z" fill="#003196"/>
<path transform="translate(957 1026)" d="m0 0c1.53-0.0116 1.53-0.0116 3.09-0.0234 0.98 0.00258 1.96 0.00516 2.97 0.00781 1.32 0.00338 1.32 0.00338 2.66 0.00684 2.57 0.276 4.16 1.04 6.41 2.26h2v2c0.73 0.125 1.46 0.25 2.21 0.379 11.7 2.6 21.2 11.3 27.7 21 8.36 14.2 9.8 29.3 6.09 45.1-4.22 14.4-13.3 24.9-26 32.5-0.66 0.411-1.32 0.822-2 1.25-9.49 5.06-22.4 5.08-33 4.75-0.99-0.495-0.99-0.495-2-1-1.85-0.343-3.7-0.65-5.56-0.938-7.96-1.3-7.96-1.3-11.5-2-0.692-0.133-1.38-0.266-2.1-0.402-2.22-0.796-3.22-1.98-4.84-3.66-1.49-0.495-1.49-0.495-3-1-2.12-0.875-2.12-0.875-4-2-0.33-0.99-0.66-1.98-1-3-0.915-0.218-0.915-0.218-1.85-0.441-5.03-1.3-8.03-7.73-10.6-11.9-7.41-13.7-8.56-29.5-4.64-44.4 5.36-15.8 15.4-25.8 30.1-33.2 0.648-0.338 1.3-0.675 1.96-1.02 8.45-4.02 17.7-4.3 26.9-4.23zm-20.9 40.2c-4.31 6.54-5.01 13.3-4 21 1.61 5.72 4.19 10.4 9 14 7.29 2.78 17.2 4.05 24.5 0.902 5.59-3.92 9.09-9.18 10.5-15.9 0.706-7.23-0.214-13.4-4.69-19.2-2.34-2.71-4.78-5.26-7.31-7.79-0.66-0.66-1.32-1.32-2-2-9.65-1.6-19.4 1.92-26 9z" fill="#003196"/>
<path transform="translate(417,1029)" d="m0 0v2c1.27 0.309 1.27 0.309 2.56 0.625 8.24 3.3 12.6 9.61 16.4 17.4 4.41 10.4 4.14 20.9 4.1 32-0.00187 1.45-0.00329 2.89-0.00429 4.34-0.00379 3.78-0.0136 7.56-0.0247 11.3-0.0103 3.87-0.0148 7.74-0.0198 11.6-0.0107 7.57-0.0277 15.1-0.0488 22.7-4.82 0.0247-9.65 0.0428-14.5 0.0549-1.64 0.00504-3.28 0.0119-4.93 0.0205-2.36 0.0121-4.71 0.0178-7.07 0.0222-0.739 0.00516-1.48 0.0103-2.24 0.0156-1.77 1.96e-4 -3.53-0.0513-5.3-0.113-1.75-1.75-1.14-4.22-1.16-6.6-0.0103-1.2-0.0205-2.4-0.0311-3.63-0.0073-1.31-0.0146-2.61-0.0221-3.96-0.013-1.35-0.0268-2.7-0.0414-4.05-0.0616-5.74-0.116-11.5-0.149-17.2-0.021-3.51-0.0564-7.02-0.101-10.5-0.0209-1.98-0.0262-3.96-0.0312-5.94-0.0881-6.48-0.351-11.3-3.47-17.1-0.33-0.99-0.66-1.98-1-3h-2v-2c-8.98-0.554-8.98-0.554-17 3-6.31 6.03-7.03 12.7-7.32 21.2-0.0412 2.32-0.0725 4.64-0.0952 6.97-0.0194 1.23-0.0387 2.46-0.0587 3.73-0.0594 3.9-0.106 7.8-0.152 11.7-0.0372 2.66-0.0773 5.31-0.117 7.97-0.0957 6.49-0.181 13-0.258 19.5-4.68 0.0247-9.36 0.0428-14 0.0549-1.59 0.00504-3.19 0.0119-4.78 0.0205-2.29 0.0121-4.57 0.0178-6.86 0.0222-0.717 0.00516-1.43 0.0103-2.17 0.0156-1.72 1.96e-4 -3.43-0.0514-5.14-0.113-1.94-1.94-1.12-4.89-1.12-7.47 0.0036-0.931 0.00719-1.86 0.0109-2.82-1.46e-4 -0.976-2.92e-4 -1.95-4.43e-4 -2.96 7e-4 -3.24 0.00849-6.48 0.0163-9.72 0.00186-2.24 0.00329-4.48 0.00429-6.72 0.00383-5.91 0.0137-11.8 0.0247-17.7 0.0102-6.03 0.0148-12.1 0.0198-18.1 0.0107-11.8 0.0278-23.7 0.0488-35.5 3.76-1.88 8.17-1.44 12.3-1.56 0.951-0.0625 1.9-0.125 2.88-0.189 2.82-0.0649 5.1-0.0289 7.81 0.752 1.8 1.95 2.82 3.75 3.89 6.17 0.968 2.03 0.968 2.03 3.24 2.58 0.617 0.0819 1.23 0.164 1.87 0.248v-2c3.79-2.8 7.71-5.06 12-7 0.588-0.281 1.18-0.562 1.78-0.852 9.7-3.99 22.9-3.92 32.2 0.852z" fill="#003196"/>
<path transform="translate(599,459)" d="m0 0c3.38 2.15 5.75 4.14 7 8 0.438 2.94 0.438 2.94 0 6-2.44 2.81-2.44 2.81-5 5-1.72 1.72-1.13 4.04-1.14 6.39-0.029 1.65-0.029 1.65-0.0586 3.34-0.0336 2.33-0.0521 4.66-0.0547 6.99-0.21 9.49-0.21 9.49-3.23 12.5-1.25 0.874-1.25 0.874-2.52 1.77-0.33 0.33-0.66 0.66-1 1-1.85 0.158-3.71 0.251-5.57 0.316-1.12 0.0419-2.25 0.0838-3.41 0.127-1.18 0.0393-2.37 0.0786-3.59 0.119-1.19 0.0432-2.38 0.0864-3.6 0.131-2.95 0.106-5.89 0.208-8.84 0.307l1 6c1.66-0.0157 1.66-0.0157 3.35-0.0317 4.1-0.0362 8.2-0.0592 12.3-0.0781 1.77-0.0101 3.55-0.0237 5.32-0.041 2.55-0.0242 5.1-0.0356 7.65-0.0444 0.794-0.0103 1.59-0.0206 2.41-0.0313 3.86-7.88e-4 5.69 0.0322 8.98 2.23-0.33 1.65-0.66 3.3-1 5-13.2 0.33-26.4 0.66-40 1l1 10c28-0.661 28-0.661 56-2v-21c-1.98-0.495-1.98-0.495-4-1-2.35-3.17-2.39-6.15-2-10 1.82-4.13 3.87-6.18 8-8 4.11-0.7 5.68-0.187 9.31 1.94 3.13 2.89 3.66 5.75 3.86 9.91-0.25 3.06-1.21 4.83-3.18 7.15-0.99 0.66-1.98 1.32-3 2-0.29 3.35-0.29 3.35-0.0625 7.19 0.214 5.52-0.213 9.64-1.94 14.8h-2l-1 4c-6.8 1.01-13.5 1.21-20.4 1.32-1.75 0.0312-1.75 0.0312-3.53 0.063-3.7 0.065-7.4 0.124-11.1 0.183-2.52 0.0432-5.03 0.0868-7.55 0.131-6.15 0.107-12.3 0.209-18.4 0.307 0.495 4.46 0.495 4.46 1 9 11.3 0.0747 22.7 0.064 34 0 1.45-0.00776 1.45-0.00776 2.94-0.0157 6.14-0.0365 12.3-0.1 18.4-0.193 2.02-0.0276 4.04-0.0484 6.06-0.0622 2.85-0.0212 5.71-0.0675 8.56-0.12 0.856-0.00123 1.71-0.00247 2.59-0.00374 4.84-0.0853 4.84-0.0853 8.89-2.58 0.515-0.668 1.03-1.34 1.56-2.02 3.14-1.57 5.54-1.35 9-1 2.88 2.44 2.88 2.44 5 5l1 1c0.692 4.79 0.675 8.03-2.12 12.1-3.45 2.32-4.8 2.59-8.88 1.94-6.32-2.32-6.32-2.32-9-5-5.18-0.874-10.2-1.12-15.4-1.11-0.694-1.46e-4 -1.39-2.92e-4 -2.1-4.43e-4 -2.26 6.89e-4 -4.52 0.00843-6.78 0.0163-1.58 0.00187-3.16 0.00329-4.74 0.00429-4.14 0.0038-8.27 0.0136-12.4 0.0247-4.23 0.0103-8.46 0.0148-12.7 0.0198-8.28 0.0107-16.6 0.0277-24.8 0.0488 0.495 4.46 0.495 4.46 1 9 7.08 0.83 13.9 1.08 21 0.922 2.08-0.0272 4.16-0.0532 6.25-0.0781 3.24-0.0434 6.48-0.0943 9.72-0.166 3.16-0.0666 6.31-0.101 9.47-0.131 0.966-0.0289 1.93-0.0579 2.93-0.0877 4.49-0.0178 7.6 0.0497 11.2 2.94 3.11 3.36 3.52 4.77 3.55 9.21 0.0193 0.918 0.0387 1.84 0.0586 2.78 0.0336 1.93 0.0521 3.86 0.0547 5.8 0.128 5.91 0.128 5.91 3.23 10.8 0.83 0.646 1.66 1.29 2.52 1.96 1.55 3.1 1.29 5.58 1 9-1.31 2.94-1.31 2.94-4 5-5.02 0.812-9.45 0.682-14.1-1.38-2.87-2.49-2.87-3.53-3.25-7.44 0.0199-3.65 0.309-4.11 2.81-7.12 0.846-0.681 1.69-1.36 2.56-2.06 1.55-1.55 1.13-3 1.13-5.15 0.00129-0.84 0.00258-1.68 0.00391-2.55-0.00387-0.884-0.00773-1.77-0.0117-2.68 0.00387-0.877 0.00773-1.75 0.0117-2.66-0.00129-0.843-0.00258-1.69-0.00391-2.55-0.00169-1.16-0.00169-1.16-0.00342-2.35-0.053-2.27-0.053-2.27-1.13-5.07-18.5 0.33-37 0.66-56 1 0.495 4.46 0.495 4.46 1 9 1.03-0.0157 2.07-0.0314 3.13-0.0476 3.85-0.0544 7.7-0.0888 11.5-0.117 1.66-0.0151 3.33-0.0355 4.99-0.0615 2.4-0.0365 4.79-0.0534 7.19-0.0667 1.11-0.0232 1.11-0.0232 2.24-0.0469 4.45-0.00144 7.45 0.442 10.9 3.34v3c-3.86 1.29-7.57 1.23-11.6 1.32-0.839 0.0208-1.68 0.0416-2.54 0.063-2.68 0.0654-5.36 0.124-8.04 0.183-1.82 0.0432-3.63 0.0868-5.45 0.131-4.45 0.107-8.91 0.208-13.4 0.307 0.33 1.98 0.66 3.96 1 6 0.665 0.00411 1.33 0.00822 2.02 0.0125 3.04 0.0331 6.07 0.104 9.11 0.175 1.05 0.0058 2.09 0.0116 3.17 0.0176 8.73 0.249 8.73 0.249 12.4 3.16 3.25 3.7 3.44 6.29 3.46 11 0.0193 1.06 0.0387 2.11 0.0586 3.2 0.0338 2.22 0.0521 4.44 0.0547 6.66-0.0811 6.27-0.0811 6.27 3.23 11.2 0.83 0.492 1.66 0.985 2.52 1.49 1.1 2.65 1.21 5.15 1 8-1.14 2.43-2.12 4.12-4 6-1.6 0.0992-3.21 0.13-4.81 0.125-0.873 0.00258-1.75 0.00516-2.64 0.00781-2.33-0.122-4.31-0.478-6.54-1.13v-2c-0.99-0.33-1.98-0.66-3-1-0.787-8.03-0.787-8.03 2.44-12 1.27-0.99 1.27-0.99 2.56-2 2.29-2.29 1.19-7.74 1.19-10.8 0.0122-0.916 0.0245-1.83 0.0371-2.78 0.00193-0.885 0.00387-1.77 0.00586-2.68 0.00411-0.811 0.00822-1.62 0.0125-2.46-0.266-2.49-0.997-4.12-2.24-6.27-3.25-0.0582-6.5-0.0937-9.75-0.125-1.38-0.0251-1.38-0.0251-2.79-0.0508-0.889-0.00645-1.78-0.0129-2.7-0.0195-0.817-0.0105-1.63-0.0209-2.48-0.0317-2.53 0.251-4.06 1.06-6.29 2.23-6.11 0.545-11.3-0.647-17.2-2.25-2.81-0.786-2.81-0.786-5.61-1.27-2.7-0.593-3.3-1.56-5.22-3.49-2.32-1.02-4.66-2.02-7-3-0.66-0.66-1.32-1.32-2-2-1.49-0.99-1.49-0.99-3-2v-2c-0.99-0.33-1.98-0.66-3-1-9.44-12.3-14.6-26.4-13-42 2.81-16.5 9.65-29.7 23.5-39.8 5.82-3.7 12-6.13 18.5-8.19 0.758-0.238 1.52-0.477 2.3-0.723 5.34-1.52 8.58-0.986 13.7 0.723 1.84 0.149 3.69 0.248 5.54 0.316 1.61 0.0628 1.61 0.0628 3.25 0.127 1.12 0.0393 2.24 0.0786 3.39 0.119 1.13 0.0432 2.26 0.0864 3.43 0.131 2.79 0.106 5.59 0.208 8.38 0.307 0.087-3.77 0.14-7.54 0.188-11.3 0.0251-1.07 0.0503-2.14 0.0762-3.25 0.00967-1.03 0.0193-2.06 0.0293-3.12 0.0157-0.948 0.0314-1.9 0.0476-2.87-0.402-2.89-1.09-3.67-3.34-5.45-1.98-1.7-2.88-2.52-3.5-5.09-0.155-6.06-0.155-6.06 1.78-8.58 4.25-3.55 7.23-4.87 12.7-4.34zm-6 6c-0.33 1.98-0.66 3.96-1 6 2.97 0.495 2.97 0.495 6 1-0.656-3.61-0.656-3.61-2-7h-3zm35 36c-1.3 1.07-1.3 1.07-1.06 3.56 0.0206 0.804 0.0412 1.61 0.0625 2.44h5c0.33-1.32 0.66-2.64 1-4h-2v-2h-3zm-103 27.4c-7.42 12-9.51 25.3-6.98 39.1 3.78 13.5 10.9 22.9 22.9 30 6.63 3.5 12.8 5.61 20.4 5.47 0.0231-12.2 0.0409-24.5 0.0518-36.7 0.00523-5.68 0.0123-11.4 0.0236-17 0.0108-5.48 0.0168-11 0.0194-16.4 0.00185-2.1 0.00548-4.19 0.0109-6.29 0.00721-2.92 0.00826-5.85 0.0078-8.77 0.00539-1.31 0.00539-1.31 0.0109-2.65 0.375-3.86 0.375-3.86-1.12-7.09-13.8-2.16-27.9 9.93-35.4 20.4zm131 23.6c-0.66 0.66-1.32 1.32-2 2 0.319 2.11 0.319 2.11 1 4h5c-0.33-1.65-0.66-3.3-1-5-0.99-0.33-1.98-0.66-3-1zm-17 5v1h7v-1h-7zm-11 47c-1.3 1.07-1.3 1.07-1.06 3.56 0.0206 0.804 0.0412 1.61 0.0625 2.44 0.99 0.33 1.98 0.66 3 1 2.18-0.802 2.18-0.802 2.69-2.94 0.524-2.12 0.524-2.12-0.688-4.06h-4zm-35 33c-0.33 1.98-0.66 3.96-1 6 2.97 0.495 2.97 0.495 6 1 0.167-2.42 0.167-2.42 0-5-0.66-0.66-1.32-1.32-2-2h-3z" fill="#002F8E"/>
<path transform="translate(159,999)" d="m0 0c2.47 0.495 2.47 0.495 5 1 0.33 9.24 0.66 18.5 1 28 7.48 0.289 7.48 0.289 15 0.568 1.39 0.0572 1.39 0.0572 2.81 0.115 0.953 0.0367 1.91 0.0733 2.89 0.111 2.34 0.205 2.34 0.205 4.34 1.21v26c-11.4 0.438-11.4 0.438-15 0.568-0.931 0.0381-1.86 0.0762-2.82 0.115-0.958 0.0367-1.92 0.0733-2.9 0.111-2.2-0.0363-2.2-0.0363-3.22 1.21-0.126 2.45-0.189 4.87-0.203 7.32-0.00855 1.11-0.00855 1.11-0.0173 2.24-0.00947 1.57-0.016 3.14-0.0198 4.71-0.00966 2.39-0.0406 4.78-0.0723 7.16-0.00653 1.53-0.0118 3.05-0.0156 4.58-0.0123 0.71-0.0247 1.42-0.0374 2.15 0.0207 4.68 0.846 7.89 3.37 11.8 4.3 2.11 8.52 2.33 13.2 2.56 6.55 0.339 6.55 0.339 8.75 1.44v29c-4.54 0.0693-9.07 0.129-13.6 0.165-1.54 0.015-3.08 0.0354-4.62 0.0615-13.2 0.218-24.3-1.18-34.5-10.4-7.9-8.26-8.43-19.3-8.63-30.1-0.0208-0.968-0.0416-1.94-0.063-2.93-0.0651-3.08-0.124-6.15-0.183-9.23-0.0432-2.09-0.0868-4.18-0.131-6.28-0.107-5.12-0.208-10.2-0.307-15.3-5.61-0.33-11.2-0.66-17-1-1-7-1-7 0-9h2c0.272-0.589 0.544-1.18 0.824-1.79 2.88-5.42 7.68-10.1 12.2-14.2h2c0.248-0.557 0.495-1.11 0.75-1.69 2.31-4.27 5.26-7.39 8.94-10.5 3.24-2.76 6.07-5.68 8.88-8.88 3.61-4.06 7-7.78 11.4-10.9z" fill="#003196"/>
<path transform="translate(563,452)" d="m0 0c3.51 2.68 4.85 4.16 5.65 8.55 0.0327 1.35 0.037 2.7 0.0171 4.05 0.00478 0.718 0.00957 1.44 0.0145 2.18 0.00339 1.51-0.00574 3.02-0.0267 4.53-0.0269 2.31-1.87e-4 4.62 0.0317 6.94-0.0033 1.47-0.00971 2.94-0.0195 4.41 0.0152 1.04 0.0152 1.04 0.0307 2.09-0.0478 1.95-0.0478 1.95-0.695 5.24-3.36 2.73-5.98 3.35-10.2 3.5-12.5 0.872-23.1 6.69-32.5 14.7-2.23 1.77-2.23 1.77-4.39 2.7-2.59 1.52-2.86 3.29-3.84 6.07-0.882 1.34-1.8 2.65-2.75 3.94-9.95 14.6-12.7 32.5-9.69 49.8 1.44 5.3 4.24 10.2 6.78 15 1.39 2.71 2.59 5.39 3.66 8.23h2c1.02 1.15 1.99 2.35 2.94 3.56 9.77 11.4 25.6 17.6 40.3 18.8 3.63 0.8 5.21 1.95 7.8 4.62 0.474 2.72 0.635 4.8 0.559 7.5-0.0035 1.08-0.0035 1.08-0.00706 2.18-0.00972 1.52-0.0315 3.03-0.0645 4.55-0.0495 2.32-0.0615 4.64-0.0671 6.97-0.0141 1.48-0.0303 2.95-0.0488 4.43-0.00804 1.04-0.00804 1.04-0.0163 2.1-0.0895 3.63-0.287 5.17-2.35 8.27-5.15 0.797-11 0.597-16.1-0.625-4.38-3.54-4.44-7.7-5.23-13.1-0.706-3.27-0.973-4.43-3.7-6.25-2.06-0.715-2.06-0.715-4.31-1.06-9.65-1.9-9.65-1.9-12.7-4.94-1.32-0.697-2.65-1.37-4-2-0.438 0.422-0.877 0.843-1.33 1.28-5.18 4.48-9.35 5.5-16.1 5.91-2.54-0.188-2.54-0.188-4.54-2.19-0.763-0.598-1.53-1.2-2.31-1.81-2.77-2.25-5.23-4.6-7.69-7.19-0.471-0.464-0.941-0.928-1.43-1.41-2.36-2.5-3.54-4.43-4.32-7.78 0.831-4.22 2.03-5.47 4.69-8.75 2.58-3.65 2.58-3.65 2.76-7.96-1.45-4.3-3.61-8.25-5.75-12.2-1.89-3.75-2.92-7.81-3.94-11.9-1.34-0.29-1.34-0.29-2.7-0.586-1.17-0.26-2.34-0.521-3.55-0.789-1.16-0.255-2.32-0.51-3.52-0.773-5.42-1.43-5.42-1.43-7.23-2.85-3.14-8.05-3.51-18.5-0.812-26.8 2.41-4.33 4.53-5.59 9.19-6.94 3.22-0.384 6.38-0.376 9.62-0.312 0.0928-1.36 0.0928-1.36 0.188-2.75 0.937-6.66 3.98-13.3 7.51-19 1.59-2.19 1.59-2.19 0.805-4.59-1.39-2.59-1.39-2.59-2.76-4.54-2.21-3.28-3.65-5.74-4.49-9.65 1.11-5.17 4.08-7.84 7.75-11.5 0.563-0.634 1.13-1.27 1.71-1.92 3.89-4.27 8.34-8.44 14.3-9.08 2.57 1.19 4.58 2.7 6.83 4.43 2.69 1.94 4.66 2.73 7.95 2.95 4.1-0.699 7.56-2.89 11.2-4.88 4.23-2.08 8.41-2.91 13.1-3.5-0.0619-0.969-0.124-1.94-0.188-2.94 0.042-5.17 0.859-10.8 4.66-14.5 4.43-2.86 8.36-3.29 13.5-2.54zm-9 7c-1.99 1.99-1.68 5.7-2 8.44-0.867 7.3-0.867 7.3-2 9.56-1.72 0.352-1.72 0.352-4.06 0.625-5.97 1.03-10.8 3.66-16.1 6.63-4.91 2.67-8.3 3.12-13.9 2.74h-2c-1.71-1.62-3.38-3.29-5-5-1.03-1.22-1.03-1.22-3.17-1.42-4.17 0.622-6.29 3.24-9.08 6.17-0.541 0.539-1.08 1.08-1.64 1.63-2.68 2.75-4.61 4.76-5.11 8.62 1.39 2.47 1.39 2.47 3.38 4.88 2.92 3.72 4.57 6.32 4.62 11.1-1.14 2.71-2.31 5.09-3.75 7.62-3.56 6.63-5.9 12.9-7.25 20.4-0.88 0.0258-1.76 0.0516-2.67 0.0781-1.74 0.0851-1.74 0.0851-3.52 0.172-1.72 0.0696-1.72 0.0696-3.48 0.141-3.92 0.717-5.62 1.71-8.33 4.61-1.75 5.94-1.42 13 0 19 2.98 2.64 7.14 2.56 11 3v1c1.98 0.33 3.96 0.66 6 1 0.28 0.92 0.559 1.84 0.848 2.79 2.58 8.23 5.69 15.6 9.89 23.2 1.42 3.41 1.56 4.62 0.258 8.02-1.78 2.62-3.72 5.04-5.7 7.5-1.59 2.42-1.59 2.42-0.777 5.02 1.66 2.79 3.48 4.88 5.79 7.17 0.759 0.767 1.52 1.53 2.3 2.32 2.54 2.11 4.13 3.38 7.39 3.99 2.92-1.64 2.92-1.64 5.75-4.06 5.56-3.91 5.56-3.91 8.5-4.02 2.39 0.822 4.51 1.9 6.75 3.08 2.49 1.02 4.99 2.02 7.5 3 1.29 0.523 2.59 1.05 3.88 1.57 4.17 1.64 8.35 3.08 12.6 4.43 0.11 1.06 0.219 2.12 0.332 3.21 0.159 1.39 0.32 2.78 0.48 4.16 0.0703 0.699 0.141 1.4 0.213 2.12 0.222 1.85 0.591 3.68 0.975 5.51 3.23 2.15 4.28 2.2 8 2 0.0289-4.29 0.0468-8.58 0.0625-12.9 0.0126-1.83 0.0126-1.83 0.0254-3.71 0.00483-1.75 0.00483-1.75 0.00977-3.54 0.00524-1.08 0.0105-2.16 0.0159-3.27 0.0653-2.6 0.0653-2.6-1.11-4.61-2.36-0.542-4.68-0.984-7.06-1.38-5.96-1.07-10.6-2.73-15.9-5.62-3.32-0.778-3.32-0.778-6-1v-2c-1.05-0.413-2.1-0.825-3.19-1.25-3.43-1.48-5.99-3.28-8.81-5.75-0.534-0.409-1.07-0.817-1.62-1.24-12.7-10.1-18.8-25.9-20.9-41.5-1.9-18.5 2.99-35.6 14.5-50.2 0.572-0.761 1.14-1.52 1.73-2.3 11.8-14.6 30.4-21.1 48.3-24.7v-26c-2.31-0.33-4.62-0.66-7-1z" fill="#002D88"/>
<path transform="translate(812 987)" d="m0 0c1.08 0.00902 2.16 0.018 3.27 0.0273 0.82 0.0116 1.64 0.0232 2.48 0.0352v2c1.09 0.168 1.09 0.168 2.2 0.34 2.93 0.69 5.01 1.75 7.61 3.22 4.74 2.47 7.9 2.93 13.2 2.44 0.66-2.31 1.32-4.62 2-7 3.55-1.1 6.86-1.13 10.6-1.12 1.14-0.00258 2.27-0.00516 3.44-0.00781 3 0.133 3 0.133 6 1.13 0.419 8.8-0.943 16.4-6.51 23.5-4.36 4.4-9.08 5.76-15.2 6.07-8-0.244-16.3-3.24-23-7.69-3.5-1.33-5.74-0.895-9.31 0.125-0.541 0.993-1.08 1.99-1.64 3.01-2.36 2.99-2.36 2.99-4.36 3.58-2.43 0.23-4.81 0.298-7.25 0.29-0.84 0.0206-1.68 0.0412-2.55 0.0625-2.07 0.047-4.14 0.0582-6.2 0.0625-0.177-9.83 1.23-17.1 8.23-24.4 5.34-4.9 9.96-5.76 17-5.69z" fill="#003092"/>
<path transform="translate(934,1154)" d="m0 0c2.84 2.54 3.83 4.41 4.88 8.06 0.13 3.06-0.223 4.41-1.88 6.94h-4c-0.66-3.3-1.32-6.6-2-10-10.4 2.95-16.7 13.2-22.4 21.8-0.413 0.613-0.826 1.23-1.25 1.86-3.38 5.19-6.45 10.5-7 16.8-0.103 1.18-0.206 2.35-0.312 3.56 9.7-3.66 15.9-11.8 21.9-19.9 0.482-0.637 0.963-1.27 1.46-1.93 0.925-1.24 1.83-2.49 2.72-3.75 2.26-3.04 3.49-4.35 7.2-5.35 0.883-0.0348 1.77-0.0696 2.68-0.105 2.84 4.08 3.89 8.04 4.69 12.9 0.125 0.749 0.25 1.5 0.379 2.27 2.73 17.6 1.1 37.1-8.73 52.5-4 5.43-7.83 9.23-14.3 11.4-6.35 0.538-10.8-0.22-16-4-4.6-4.28-8.89-8.63-10-15-0.0752-2.33-0.0933-4.67 0-7 1.94-0.562 1.94-0.562 4-1 1.57 1.57 1.42 3.45 1.75 5.62 1.26 6.48 3.66 10.5 9 14.4 5.06 1.56 9.45 1.47 14.2-1.03 8.4-6.31 11.4-18.1 13-28 1.3-11.5 2.82-25.2-2-36-0.713 0.99-1.43 1.98-2.16 3-17.1 23.7-17.1 23.7-25.8 26-3.24-0.195-5.25-0.402-7.81-2.44-2.73-3.59-2.31-6.32-1.8-10.7 3.07-14.4 16-29.5 27.5-38.3 4.04-2.59 7.41-3.36 12.1-2.56z" fill="#000002"/>
<path transform="translate(1007,1157)" d="m0 0c1.88 1 1.88 1 3 3 0.383 3.47 0.594 6.81-1 10h-6v-8c-9.72 6.51-16.6 15.1-23.3 24.6-0.504 0.696-1.01 1.39-1.53 2.11-4.3 6.12-8.19 12.8-9.16 20.3 11.1-1.62 18.5-12.6 25-21 3.09-4.16 5.76-8.16 7.62-13 1.38-3 1.38-3 3.44-4 1.94 0 1.94 0 3.94 1-0.144 1-0.289 2.01-0.438 3.04-1.2 8.71-1.83 17.1-1.56 26h4c0.495-0.99 0.495-0.99 1-2h5c-1.33 5.57-1.33 5.57-4.25 7.44-3.3 0.676-5.51 0.479-8.75-0.438-3.04-2.33-3.56-4.48-4.19-8.19-0.159-0.901-0.317-1.8-0.48-2.73-0.11-0.687-0.219-1.37-0.332-2.08h-2c-1.57 1.55-1.57 1.55-3.19 3.56-6.44 7.53-12.7 14.8-22.6 17.4-3.25 0-3.25 0-5.69-1.44l-1.56-1.56c-0.99 0.66-1.98 1.32-3 2-3.9 0.594-5.46 0.392-8.69-1.94-6.74-8.93-6.82-20.1-5.56-30.8 1.76-11.8 1.76-11.8 5.25-15.2 1.67-0.0406 3.33-0.0427 5 0-0.434 4.05-0.921 7.72-2.02 11.7-1.23 4.81-1.31 9.47-1.29 14.4-0.0161 0.859-0.0322 1.72-0.0488 2.6-0.00424 5.55 0.82 9.39 3.36 14.3h7c0.141-1.74 0.141-1.74 0.285-3.52 0.576-4.54 2.06-8.13 4.15-12.2 0.351-0.688 0.703-1.38 1.06-2.08 6.19-11.7 21.9-36.6 37.5-33.2z" fill="#000002"/>
<path transform="translate(531,390)" d="m0 0h61v19h-61v-19z" fill="#000002"/>
<path transform="translate(265 986)" d="m0 0c0.985 0.00281 0.985 0.00281 1.99 0.00568 1.39 0.00671 2.77 0.0206 4.16 0.0412 2.12 0.0312 4.25 0.041 6.37 0.0469 10.4 0.0706 10.4 0.0706 12.7 1.23-0.539 4.58-2.43 7.23-5 11-1.98 3.25-3.95 6.51-5.9 9.78-0.692 1.06-1.38 2.12-2.1 3.22-0.657 1.12-1.31 2.24-1.99 3.39-4.67 4.06-9.23 3.22-15.2 2.93-2.18-0.0699-4.36-0.137-6.54-0.199-0.963-0.0434-1.93-0.0869-2.92-0.132-2.37-0.154-2.37-0.154-4.35 1.02 1.36-6.66 3.19-13 5.44-19.4 0.3-0.888 0.599-1.78 0.908-2.69 0.297-0.852 0.594-1.7 0.9-2.58 0.265-0.765 0.53-1.53 0.802-2.32 2.48-5.29 5.05-5.41 10.7-5.36z" fill="#003196"/>
<path transform="translate(693,1158)" d="m0 0c2.29 2.49 2 4.23 1.94 7.62-1.52 9.3-6.41 15.9-13.9 21.4-2.52 1.26-4.31 1.1-7.12 1.06-0.91-0.00902-1.82-0.018-2.76-0.0273-1.05-0.0174-1.05-0.0174-2.12-0.0352-0.534 1.89-1.05 3.79-1.56 5.69-0.29 1.06-0.58 2.11-0.879 3.2-0.566 3.15-0.543 5.08 0.441 8.11 2.39 1.79 4.02 2.12 6.98 1.76 10.1-2.62 17.5-11.3 23-19.8l1-2h3c-1.38 8.84-6.82 15.7-13.6 21.3-6.03 4.23-12 6.65-19.4 5.38-3.23-1.11-4.95-3.01-6.98-5.68-2.68-8.04-1.08-15.4 2.39-23 4.89-9.26 11.4-20.5 21.2-25.3 3.21-0.991 5.24-0.743 8.43 0.25zm-5 3c-5.57 3.15-9.4 8.61-13 13.8-0.398 0.567-0.796 1.13-1.21 1.72-1.85 2.74-2.79 4.16-2.79 7.53 3.17 0.554 5.26 0.472 8-1.28 5.66-4.74 10.7-10.2 11.8-17.7 0.0619-0.99 0.124-1.98 0.188-3-0.99-0.33-1.98-0.66-3-1z" fill="#000002"/>
<path transform="translate(886,1160)" d="m0 0c3.74 2.73 5.01 5.53 6 10 1.42 12.2-4.19 24.7-11.7 34.1-4.03 4.3-8.25 7.54-14.3 8.02-3.03-0.142-5.14-0.503-7.54-2.43-4.15-4.71-4.64-8.48-4.29-14.5 0.897-10.2 3.76-21.5 10.9-29.2 2.81-1.69 2.81-1.69 6-3 0.632-0.362 1.26-0.724 1.91-1.1 4.69-2.67 7.69-3.56 13.1-1.9zm-14 7c-2.02 2.96-2.02 2.96-3.04 5.09-1.03 2.05-2.25 3.88-3.53 5.79-4.93 7.95-6.48 15.8-5.44 25.1 1.2 3.08 1.2 3.08 3.75 5 4.15 0 6.77-2.7 9.72-5.3 6.91-7.13 12.6-19.2 12.7-29.1-0.0591-3.58-0.168-6.49-2.19-9.56-4.59-2.23-8.35-0.0426-12 3z" fill="#000002"/>
<path transform="translate(776,1165)" d="m0 0c4.25 3.37 4.3 7.89 5 13 0.16 1.53 0.313 3.07 0.461 4.6 0.12 1.24 0.12 1.24 0.242 2.5 0.153 1.65 0.295 3.3 0.424 4.95 0.49 5.46 1.75 9.89 3.87 15 2.31-0.33 4.62-0.66 7-1-1.12 2.5-1.12 2.5-3 5-2.88 0.688-2.88 0.688-6 0-7.94-6.65-8.09-17.9-9.06-27.6-0.0673-0.786-0.135-1.57-0.204-2.38-0.344-3.75-0.609-5.87-2.73-9.06-4.68 4.21-7.73 8.98-10.9 14.4-0.793 1.32-0.793 1.32-1.6 2.66-3.85 6.55-6.77 13.1-9.18 20.3-1.28 2.68-1.28 2.68-3.38 3.63-0.944 0.0213-0.944 0.0213-1.91 0.043-0.33-0.33-0.66-0.66-1-1 0.21-9.07 1.75-18.2 3-27.1 0.18-1.33 0.36-2.65 0.539-3.98 0.173-1.25 0.345-2.5 0.523-3.78 0.234-1.69 0.234-1.69 0.473-3.42 0.465-2.7 0.465-2.7 1.46-4.7 1.65 0.33 3.3 0.66 5 1 0.264 6.87-0.742 13.3-2 20 0.568-0.918 1.14-1.84 1.72-2.78 13.2-21 13.2-21 21.3-20.2z" fill="#000002"/>
<path transform="translate(825,1161)" d="m0 0c4.57 4.72 4.4 10.1 4.34 16.4-1.01 10.7-6.78 21.9-14.3 29.6-4.52 3.73-8.17 5.21-14.1 5.02-4.07-2.04-6.39-3.75-8-8-1.52-12.8 1.32-25.9 8.66-36.7 2.18-2.16 4.37-2.32 7.34-2.32v-2c5.8-3.18 9.61-5.07 16-2zm-17.4 9.07c-0.753 1.15-1.49 2.32-2.21 3.5-0.385 0.618-0.771 1.24-1.17 1.87-5.03 8.3-8.69 16.7-7.21 26.6 1.23 3.02 1.99 4.38 4.75 6.06 3.8-0.105 6.41-1.71 9.25-4.06 8.28-9.54 13.4-20.7 13.2-33.4-0.27-3.32-0.839-5.26-3.21-7.64-5.81-1.41-10 2.77-13.4 7.07z" fill="#000002"/>
<path transform="translate(643,1149)" d="m0 0c2.48 0.495 2.48 0.495 5 1-0.142 2.04-0.289 4.08-0.438 6.12-0.0812 1.14-0.162 2.27-0.246 3.45-0.294 3.18-0.748 6.28-1.32 9.43 0.66-0.33 1.32-0.66 2-1 2.06 0.0156 2.06 0.0156 4.44 0.25 1.17 0.101 1.17 0.101 2.37 0.203 2.6 0.65 3.6 1.4 5.19 3.55v3c-3.88-0.875-3.88-0.875-5-2-3.56-0.158-6.58 0.0646-10 1-1.3 18-1.3 18 5 34 3.93-0.575 3.93-0.575 7-3h3c-0.125 2.31-0.125 2.31-1 5-3.16 2.21-5.2 3-9.06 3-5-1.7-7.23-4.69-9.69-9.25-2.72-8.17-3.66-18.4-1.25-26.8-0.922 0.559-0.922 0.559-1.86 1.13-0.808 0.473-1.62 0.946-2.45 1.43-0.801 0.476-1.6 0.951-2.43 1.44-2.26 0.996-2.26 0.996-5.26-0.00391 0.387-2.46 0.696-3.71 2.52-5.45 0.611-0.409 1.22-0.817 1.85-1.24 0.606-0.416 1.21-0.833 1.84-1.26 1.79-1.05 1.79-1.05 4.79-2.05 0.0804-0.56 0.161-1.12 0.244-1.7 0.369-2.54 0.75-5.08 1.13-7.62 0.126-0.881 0.253-1.76 0.383-2.67 0.129-0.848 0.258-1.7 0.391-2.57 0.173-1.17 0.173-1.17 0.349-2.36 0.502-2.08 0.502-2.08 2.5-5.08z" fill="#000002"/>
<path transform="translate(844,1132)" d="m0 0c0.219 5.7-0.384 10.9-1.46 16.5-1.56 10.2-1.75 20.5-1.78 30.9-0.0098 2.33-0.041 4.66-0.0723 6.99-0.0546 7.7 0.0702 14.5 3.31 21.6 1.96 2.41 1.96 2.41 5.62 2.12 1.11-0.0412 2.23-0.0825 3.38-0.125v3c-3.29 1.64-6.47 1.77-10 1-5.25-3.52-6.9-8.98-8.4-14.8-1.08-5.69-1.04-11.3-0.975-17.1 0.00653-1.29 0.0131-2.58 0.0198-3.91 0.31-29.1 0.31-29.1 3.96-42.4 0.606-1.88 0.606-1.88-0.61-3.78 3.13-1.04 3.99-0.934 7 0z" fill="#000002"/>
<path transform="translate(737 1160)" d="m0 0c3.19 2.19 3.19 2.19 4.19 5.19-0.66 0.66-1.32 1.32-2 2-2.64-0.264-3.86-0.879-5.88-2.62-2.11-1.64-2.11-1.64-5-1.38-8.96 2.87-12.9 11.2-17.1 19-3 6.39-5.28 12.9-4 20 1.61 3.18 1.61 3.18 4.1 3.43 9.03 0.014 14.8-2.94 21.4-8.91 1.91-1.97 3.25-4.08 4.48-6.53 0.99 0.33 1.98 0.66 3 1-1.44 4.76-4.27 7.73-7.75 11.1-0.513 0.525-1.03 1.05-1.55 1.59-4.82 4.78-9.83 7.75-16.7 8.34-3.69-0.0928-5.92-1.09-9.02-3.05-3.16-4.06-4.7-8.57-4.37-13.8 2.13-12.9 9.27-25.9 19.6-34 5.49-3.71 10.6-4.57 16.6-1.39z" fill="#000002"/>
<path transform="translate(551,816)" d="m0 0h21v20h-21v-20z" fill="#000002"/>
<path transform="translate(908,1046)" d="m0 0c0.33 0.66 0.66 1.32 1 2-1.07 2.11-1.07 2.11-2.69 4.75-7.08 12.7-9.83 27.6-6.46 41.9 3.24 9.52 7.52 17.8 14.1 25.4-3 0-3 0-4.65-1.62-11-14.4-15.3-29.6-12.9-47.7 1.67-8.62 5.23-18.4 11.6-24.7z" fill="#000002"/>
<path transform="translate(968,1061)" d="m0 0c5.4 3.4 8.08 8.04 10 14 0.89 7.83 0.735 14.4-4.12 20.8-0.619 0.722-1.24 1.44-1.88 2.19-0.66-0.33-1.32-0.66-2-1 1.01-1.69 2.02-3.39 3.03-5.08 2.65-5.23 2.8-11.4 1.48-17-1.7-4.93-4.33-8.77-7.5-12.9 0.33-0.33 0.66-0.66 1-1z" fill="#000002"/>
<path transform="translate(526,516)" d="m0 0c0 3.97-1.47 5-4 8-10.8 15.1-12 29.8-10 48-5.51-10.4-3.4-23.2-0.332-34.1 2.73-8.66 7.54-16 14.3-21.9z" fill="#000002"/>
<path transform="translate(836,1061)" d="m0 0c2.77 0.367 3.88 0.879 5.89 2.89 0.594 0.779 1.19 1.56 1.8 2.36 0.602 0.768 1.2 1.54 1.82 2.33 3.49 5.68 3.11 13 2.49 19.4-1.45 4.51-3.57 7.76-7 11-0.66-0.33-1.32-0.66-2-1 0.349-0.531 0.699-1.06 1.06-1.61 0.455-0.706 0.91-1.41 1.38-2.14 0.452-0.696 0.905-1.39 1.37-2.11 2.79-5.02 2.78-10.5 2.19-16.1-1.76-5.97-4.82-10.5-9-15z" fill="#000002"/>
<path transform="translate(952,1142)" d="m0 0c1.67-0.0427 3.33-0.0406 5 0 1 1 1 1 1.06 3.56-0.0206 0.804-0.0412 1.61-0.0625 2.44-2.38 0.625-2.38 0.625-5 1-0.66-0.66-1.32-1.32-2-2 0.375-2.62 0.375-2.62 1-5z" fill="#000002"/>
<path transform="translate(941,1134)" d="m0 0h6v1h-6v-1z" fill="#000002"/>
<path transform="translate(807,1134)" d="m0 0h5v1h-5v-1z" fill="#000002"/>
<path transform="translate(502,636)" d="m0 0h5v1h-5v-1z" fill="#000002"/>
<path transform="translate(621,541)" d="m0 0 4 1z" fill="#000002"/>
<path transform="translate(552,494)" d="m0 0 4 1z" fill="#000002"/>
<path transform="translate(517,489)" d="m0 0 4 1z" fill="#000002"/>
<path transform="translate(959,1058)" d="m0 0c3 1 3 1 3 1z" fill="#000002"/>
<path transform="translate(539,619)" d="m0 0c3 1 3 1 3 1z" fill="#000002"/>
<path transform="translate(554,609)" d="m0 0c3 1 3 1 3 1z" fill="#000002"/>
<path transform="translate(550,608)" d="m0 0c3 1 3 1 3 1z" fill="#000002"/>
<path transform="translate(470,573)" d="m0 0c3 1 3 1 3 1z" fill="#000002"/>
<path transform="translate(652,564)" d="m0 0c3 1 3 1 3 1z" fill="#000002"/>
<path transform="translate(936,1133)" d="m0 0 2 1z" fill="#000002"/>
<path transform="translate(933,1132)" d="m0 0 2 1z" fill="#000002"/>
<path transform="translate(489,1132)" d="m0 0 2 1z" fill="#000002"/>
<path transform="translate(830,1058)" d="m0 0 2 1z" fill="#000002"/>
<path transform="translate(706,1056)" d="m0 0 2 1z" fill="#000002"/>
<path transform="translate(848,1035)" d="m0 0 2 1z" fill="#003297"/>
<path transform="translate(831,1016)" d="m0 0 2 1z" fill="#000002"/>
<path transform="translate(590,650)" d="m0 0 2 1z" fill="#000002"/>
<path transform="translate(539,637)" d="m0 0 2 1z" fill="#000002"/>
<path transform="translate(555,623)" d="m0 0 2 1z" fill="#000002"/>
<path transform="translate(549,622)" d="m0 0 2 1z" fill="#000002"/>
<path transform="translate(537,618)" d="m0 0 2 1z" fill="#000002"/>
<path transform="translate(535,617)" d="m0 0 2 1z" fill="#000002"/>
<path transform="translate(527,613)" d="m0 0 2 1z" fill="#000002"/>
<path transform="translate(606,592)" d="m0 0 2 1z" fill="#000002"/>
<path transform="translate(650,563)" d="m0 0 2 1z" fill="#000002"/>
<path transform="translate(474,543)" d="m0 0 2 1z" fill="#000002"/>
</svg>
